# xmcd
#
# Track frame offsets: 
#        150
#        28848
#        55577
#        83988
#        110667
#        135990
#        166046
#        196462
#        233055
#
# Disc length: 3628 seconds
#
# Revision: 1
# Processed by: cddbd v1.5.1PL0 Copyright (c) Steve Scherf et al.
# Submitted via: ExactAudioCopy v0.95a5
#
DISCID=6c0e2a09
DTITLE=The Ryga-Rosnes Quartet - Deep Cove
DYEAR=2004
DGENRE=Jazz
TTITLE0=For Norma and George
TTITLE1=Deep Cove
TTITLE2=Not Yet Here
TTITLE3=Dave's Chant
TTITLE4=We See
TTITLE5=Manhattan Rain
TTITLE6=One For Boone
TTITLE7=Air Dancing
TTITLE8=While We're Young
EXTD=YEAR: 2003
EXTT0=
EXTT1=
EXTT2=
EXTT3=
EXTT4=
EXTT5=
EXTT6=
EXTT7=
EXTT8=
PLAYORDER=
